<svg width="266" height="266" viewBox="0 0 266 266" fill="none" xmlns="http://www.w3.org/2000/svg">
<circle cx="133" cy="133" r="133" fill="white"/>
<path d="M110.361 204L134.513 200.923L115.392 195.794V193.742L116.399 192.716L136.525 190.665H145.582L166.715 192.716H175.772L182.816 195.794H212L204.956 131.168L199.924 112.703V100.394L191.873 90.1355L185.835 77.8258L170.741 67.5677L163.696 64.4903L150.614 51.1548L134.513 45L125.456 56.2839L118.411 59.3613L108.348 64.4903L104.323 67.5677L96.2722 82.9548L84.1962 90.1355L74.1329 106.548L68.0949 112.703L64.0696 131.168L57.0253 147.581L53 195.794L73.1266 200.923H96.2722L110.361 204Z" fill="#030727" stroke="white"/>
<path d="M82.0068 190.841L76.2055 163.428L73.3048 177.642L72.3379 184.749L76.2055 189.826L82.0068 190.841Z" fill="white" stroke="#031927"/>
<path d="M118.96 76.234V68.0276L111.917 76.234L105.881 93.6727L99.844 95.7244L87.7706 111.111L84.7523 122.395L77.7095 143.937L93.8073 125.473V128.55L92.8012 149.066L89.7828 165.479L95.8195 190.099L106.887 195.228L100.85 164.453L105.881 148.04L106.887 138.808L108.899 132.653L115.942 124.447L123.991 101.879L134.052 94.6986H141.095H155.18L165.241 101.879L172.284 107.008L185.364 129.576L190.394 145.989V156.247L187.376 149.066L177.315 131.628L181.339 153.17V171.634L183.351 187.021H188.382L190.394 168.557L204.48 187.021L196.431 135.731L192.406 129.576L183.351 105.982L177.315 100.853L174.296 96.7502L170.272 86.4921L164.235 80.3373L151.156 75.2082L145.119 71.105L141.095 76.234L119.966 94.6986L110.911 113.163L103.868 120.344L109.905 103.931C109.905 90.8005 115.942 79.9953 118.96 76.234Z" fill="white" stroke="#031927"/>
</svg>
